<svg width="135" height="22" viewBox="0 0 135 22" fill="none" xmlns="http://www.w3.org/2000/svg">
<path d="M9.632 21.2C9.46133 21.2 9.312 21.008 9.184 20.624C9.056 20.24 8.992 19.8347 8.992 19.408C8.992 18.0213 9.94133 15.408 11.84 11.568C11.6267 11.6107 11.3387 11.664 10.976 11.728C10.6347 11.792 10.144 11.888 9.504 12.016C8.20267 12.272 7.17867 12.4533 6.432 12.56C5.70667 12.6667 5.088 12.72 4.576 12.72C3.616 12.72 3.136 12.24 3.136 11.28C3.136 11.2587 3.15733 11.2267 3.2 11.184C3.49867 11.2693 3.872 11.3333 4.32 11.376C4.768 11.4187 5.312 11.44 5.952 11.44C6.69867 11.44 7.57333 11.408 8.576 11.344C9.57867 11.28 10.7627 11.1733 12.128 11.024L13.824 7.504C14.528 6.032 14.88 4.784 14.88 3.76C14.88 2.288 14.0587 1.552 12.416 1.552C11.008 1.552 9.16267 2.096 6.88 3.184C4.59733 4.272 2.80533 5.46667 1.504 6.768C1.52533 6.74667 1.504 6.75733 1.44 6.8C1.39733 6.82133 1.35467 6.832 1.312 6.832C1.01333 6.832 0.864 6.53333 0.864 5.936C0.864 5.21067 1.632 4.45333 3.168 3.664C4.68267 2.87467 6.368 2.23467 8.224 1.744C10.08 1.25333 11.5413 1.008 12.608 1.008C15.04 1.008 16.256 2.096 16.256 4.272C16.256 5.27467 16.1173 6.096 15.84 6.736C15.6907 7.056 15.4133 7.55733 15.008 8.24C14.624 8.92267 14.0907 9.79733 13.408 10.864C14.0053 10.7573 14.4747 10.672 14.816 10.608C15.1573 10.544 15.3707 10.512 15.456 10.512C15.6693 10.512 15.776 10.5547 15.776 10.64C15.776 10.832 15.4453 10.96 14.784 11.024L13.152 11.344C10.72 15.248 9.504 18.0853 9.504 19.856L9.664 21.04C9.664 21.1467 9.65333 21.2 9.632 21.2ZM17.1068 18.256C16.6801 18.256 16.2854 18.064 15.9228 17.68C15.5814 17.2747 15.4108 16.7627 15.4108 16.144C15.4108 15.5253 15.7841 14.5653 16.5308 13.264C17.2774 11.984 18.1948 10.832 19.2828 9.808C20.3494 8.80533 21.2668 8.304 22.0348 8.304H22.3548C23.1441 8.304 23.8161 8.464 24.3708 8.784C24.9254 9.08267 25.2028 9.488 25.2028 10C25.2028 10.2347 25.1068 10.352 24.9148 10.352C24.8508 10.352 24.8188 10.32 24.8188 10.256C24.4774 9.46667 23.9548 9.072 23.2508 9.072C22.0348 9.072 20.6481 10.0747 19.0908 12.08C17.5334 14.0427 16.7548 15.5573 16.7548 16.624C16.7548 17.0293 16.8614 17.232 17.0748 17.232C18.0348 17.232 20.0508 15.0667 23.1228 10.736C23.1014 10.7573 23.1121 10.7573 23.1548 10.736C23.2188 10.6933 23.2721 10.672 23.3148 10.672C23.4214 10.672 23.6454 10.7787 23.9868 10.992C24.3281 11.184 24.4988 11.3547 24.4988 11.504C24.4988 11.504 24.4561 11.5787 24.3708 11.728C24.2854 11.856 24.1788 12.0587 24.0508 12.336C23.7094 13.0613 23.4428 13.776 23.2508 14.48C23.0801 15.1627 22.9948 15.76 22.9948 16.272C22.9948 17.4027 23.2721 17.968 23.8268 17.968L24.1468 17.904L24.2108 17.936C24.2108 18.128 23.9441 18.224 23.4108 18.224C22.8988 18.224 22.4721 17.9893 22.1308 17.52C21.8108 17.0293 21.6508 16.3787 21.6508 15.568C21.6508 14.7787 21.7894 13.904 22.0668 12.944C22.0454 13.008 21.9708 13.1253 21.8428 13.296C21.7148 13.4667 21.5121 13.7653 21.2348 14.192C19.4854 16.9013 18.1094 18.256 17.1068 18.256ZM30.0493 6.832C29.5799 6.832 29.1959 6.704 28.8973 6.448C29.3026 6.17067 29.7293 5.808 30.1773 5.36C30.6466 4.912 31.1266 4.37867 31.6173 3.76C31.6599 3.76 31.6813 3.81333 31.6813 3.92L31.5213 4.848C31.4146 5.50933 31.2226 6.01067 30.9453 6.352C30.6679 6.672 30.3693 6.832 30.0493 6.832ZM26.9773 18.48C26.1666 18.48 25.7613 17.8933 25.7613 16.72C25.7613 14.9493 26.4013 12.6133 27.6813 9.712C27.6813 9.62667 27.7346 9.46667 27.8413 9.232C27.9693 8.99733 28.0653 8.848 28.1293 8.784C28.2786 8.63467 28.4813 8.56 28.7373 8.56C29.4839 8.56 29.8893 8.70933 29.9533 9.008C29.6119 9.56267 29.2813 10.2027 28.9613 10.928C28.6626 11.6533 28.3639 12.4533 28.0653 13.328C27.7453 14.2667 27.5106 15.0453 27.3613 15.664C27.2333 16.2613 27.1693 16.7413 27.1693 17.104C27.1693 17.6373 27.3079 17.904 27.5853 17.904C27.7773 17.904 28.0226 17.7867 28.3213 17.552C28.5559 17.36 28.7159 17.2213 28.8013 17.136C28.9079 17.0507 29.0039 16.976 29.0893 16.912C29.1746 16.912 29.2173 16.9547 29.2173 17.04C29.2173 17.2747 28.9079 17.5733 28.2893 17.936C27.6706 18.2987 27.2333 18.48 26.9773 18.48ZM31.8188 18.064C31.6268 18.064 31.4134 18.0107 31.1788 17.904C30.9441 17.7973 30.8268 17.6693 30.8268 17.52C30.8268 17.1573 31.1788 15.8773 31.8828 13.68C32.5868 11.4613 32.9388 9.79733 32.9388 8.688C32.9388 8.34667 32.7894 8.15467 32.4908 8.112C32.1921 8.06933 32.0428 8.00533 32.0428 7.92C32.0428 7.728 32.2028 7.632 32.5228 7.632C33.9521 7.632 34.6668 8.21867 34.6668 9.392C34.6668 9.73333 34.3148 10.992 33.6108 13.168C34.7628 11.2907 36.0428 10 37.4508 9.296C37.8134 8.528 38.3148 8.144 38.9548 8.144C39.5734 8.144 39.9148 8.19733 39.9788 8.304C39.9574 8.28267 39.9148 8.31467 39.8508 8.4C39.7868 8.48533 39.7121 8.58133 39.6267 8.688C39.2854 9.17867 38.9868 9.65867 38.7308 10.128C38.4748 10.576 38.3361 10.928 38.3148 11.184C38.3148 11.76 38.5174 12.112 38.9228 12.24C38.9654 12.2613 39.0081 12.272 39.0508 12.272C39.1148 12.272 39.1468 12.2933 39.1468 12.336C39.1468 12.5067 38.9334 12.592 38.5068 12.592C38.1014 12.592 37.7494 12.432 37.4508 12.112C37.2801 11.92 37.1628 11.7173 37.0988 11.504C37.0348 11.2693 37.0028 11.0453 37.0028 10.832C37.0028 10.4907 37.0561 10.1813 37.1628 9.904C36.6294 10.3093 36.1494 10.736 35.7228 11.184C35.2961 11.6107 34.9014 12.0373 34.5388 12.464C33.8561 13.3387 33.3761 14.1173 33.0988 14.8C32.8428 15.4613 32.6614 16.0267 32.5548 16.496C32.4268 17.008 32.3201 17.4027 32.2348 17.68C32.1494 17.936 32.0108 18.064 31.8188 18.064ZM40.7073 18.288C39.6833 18.288 39.1713 17.4347 39.1713 15.728C39.1713 14.64 39.5126 12.848 40.1953 10.352C40.8779 7.83467 41.7419 5.52 42.7873 3.408C43.8539 1.25333 44.7926 0.175999 45.6033 0.175999C46.0726 0.175999 46.5419 0.335999 47.0113 0.655998C47.4806 0.954666 47.7153 1.28533 47.7153 1.648C47.7153 3.184 45.4539 6.59733 40.9313 11.888C40.7606 12.6773 40.6219 13.4133 40.5153 14.096C40.4299 14.7787 40.3873 15.4187 40.3873 16.016C40.3873 17.1893 40.6433 17.776 41.1553 17.776L41.6673 17.616C41.7739 17.616 41.8273 17.6693 41.8273 17.776C41.8273 18.1173 41.4539 18.288 40.7073 18.288ZM41.1553 11.056C45.0166 6.02133 46.9473 2.85333 46.9473 1.552C46.9473 1.296 46.8726 1.168 46.7233 1.168C46.0833 1.168 45.1553 2.30933 43.9393 4.592C42.7233 6.87467 41.7953 9.02933 41.1553 11.056ZM44.1693 18.256C43.7426 18.256 43.3479 18.064 42.9853 17.68C42.6439 17.2747 42.4733 16.7627 42.4733 16.144C42.4733 15.5253 42.8466 14.5653 43.5933 13.264C44.3399 11.984 45.2573 10.832 46.3453 9.808C47.4119 8.80533 48.3293 8.304 49.0973 8.304H49.4173C50.2066 8.304 50.8786 8.464 51.4333 8.784C51.9879 9.08267 52.2653 9.488 52.2653 10C52.2653 10.2347 52.1693 10.352 51.9773 10.352C51.9133 10.352 51.8813 10.32 51.8813 10.256C51.5399 9.46667 51.0173 9.072 50.3133 9.072C49.0973 9.072 47.7106 10.0747 46.1533 12.08C44.5959 14.0427 43.8173 15.5573 43.8173 16.624C43.8173 17.0293 43.9239 17.232 44.1373 17.232C45.0973 17.232 47.1133 15.0667 50.1853 10.736C50.1639 10.7573 50.1746 10.7573 50.2173 10.736C50.2813 10.6933 50.3346 10.672 50.3773 10.672C50.4839 10.672 50.7079 10.7787 51.0493 10.992C51.3906 11.184 51.5613 11.3547 51.5613 11.504C51.5613 11.504 51.5186 11.5787 51.4333 11.728C51.3479 11.856 51.2413 12.0587 51.1133 12.336C50.7719 13.0613 50.5053 13.776 50.3133 14.48C50.1426 15.1627 50.0573 15.76 50.0573 16.272C50.0573 17.4027 50.3346 17.968 50.8893 17.968L51.2093 17.904L51.2733 17.936C51.2733 18.128 51.0066 18.224 50.4733 18.224C49.9613 18.224 49.5346 17.9893 49.1933 17.52C48.8733 17.0293 48.7133 16.3787 48.7133 15.568C48.7133 14.7787 48.8519 13.904 49.1293 12.944C49.1079 13.008 49.0333 13.1253 48.9053 13.296C48.7773 13.4667 48.5746 13.7653 48.2973 14.192C46.5479 16.9013 45.1719 18.256 44.1693 18.256ZM53.4735 18.064C53.2602 18.064 53.0575 18.0107 52.8655 17.904C52.6735 17.776 52.5668 17.648 52.5455 17.52C52.5455 17.1573 52.8975 15.8773 53.6015 13.68C54.3055 11.4613 54.6575 9.79733 54.6575 8.688C54.6575 8.368 54.5828 8.18667 54.4335 8.144C54.2842 8.08 54.1348 8.05867 53.9855 8.08C53.8362 8.08 53.7615 8.02667 53.7615 7.92C53.7615 7.728 53.9215 7.632 54.2415 7.632C55.6708 7.632 56.3855 8.21867 56.3855 9.392C56.3855 9.81867 55.8735 11.5573 54.8495 14.608C55.3188 13.8613 55.7775 13.1787 56.2255 12.56C56.6948 11.92 57.1428 11.3333 57.5695 10.8C58.4442 9.73333 59.0308 9.2 59.3295 9.2C59.3295 9.2 59.3295 9.21067 59.3295 9.232C59.3508 9.232 59.3615 9.24267 59.3615 9.264C59.3615 9.28533 59.3402 9.33867 59.2975 9.424C59.2762 9.488 59.2122 9.584 59.1055 9.712C56.8015 12.4853 55.2015 14.8747 54.3055 16.88L54.0175 17.712C53.9322 17.9467 53.7508 18.064 53.4735 18.064ZM60.0975 18.416C59.4788 18.416 58.9882 18.128 58.6255 17.552C58.2842 17.0187 58.1135 16.2187 58.1135 15.152C58.1135 14.128 58.3908 12.752 58.9455 11.024C59.5002 9.296 60.0335 8.432 60.5455 8.432H60.7055C61.4095 8.432 61.7828 8.57067 61.8255 8.848C61.7828 8.80533 61.7295 8.86933 61.6655 9.04C61.3668 9.57333 61.0788 10.1707 60.8015 10.832C60.5455 11.4933 60.3002 12.208 60.0655 12.976C59.5962 14.4693 59.3615 15.472 59.3615 15.984C59.3615 17.2853 59.5962 17.936 60.0655 17.936C60.1935 17.936 60.3748 17.84 60.6095 17.648C60.8655 17.456 60.9828 17.3493 60.9615 17.328C61.0255 17.328 61.0575 17.4133 61.0575 17.584C61.0575 18.1387 60.7375 18.416 60.0975 18.416ZM69.1115 19.184C68.1515 19.184 67.6715 18.416 67.6715 16.88C67.6715 15.9627 68.0128 14.3307 68.6955 11.984C68.2475 12.8587 67.8102 13.648 67.3835 14.352C66.9782 15.0347 66.5408 15.6853 66.0715 16.304C65.1115 17.5627 64.2902 18.192 63.6075 18.192C63.1808 18.192 62.7435 17.9253 62.2955 17.392C61.8688 16.8587 61.6555 16.3787 61.6555 15.952C61.6555 14.608 62.3702 12.9973 63.7995 11.12C65.2502 9.2 66.5408 8.24 67.6715 8.24C67.9915 8.24 68.3222 8.336 68.6635 8.528C69.0475 8.69867 69.2395 8.90133 69.2395 9.136C69.2395 9.30667 69.1435 9.392 68.9515 9.392L68.3115 9.04C67.5862 9.04 66.4662 10.1173 64.9515 12.272C63.4582 14.4053 62.7115 15.9093 62.7115 16.784C62.7115 17.104 62.7862 17.264 62.9355 17.264C63.1488 17.264 63.5328 17.0293 64.0875 16.56C64.6422 16.0907 65.3888 15.312 66.3275 14.224C67.2875 13.1147 68.2582 11.856 69.2395 10.448C69.4955 9.872 69.7728 9.21067 70.0715 8.464C70.3915 7.696 70.7755 6.77867 71.2235 5.712C71.2448 5.66933 71.3195 5.47733 71.4475 5.136C71.5968 4.79467 71.7568 4.41067 71.9275 3.984C72.1195 3.55733 72.2795 3.184 72.4075 2.864C72.5355 2.544 72.5995 2.37333 72.5995 2.352C72.5995 2.01067 72.3862 1.84 71.9595 1.84L70.8715 2.064C70.7222 2.064 70.6475 2 70.6475 1.872C70.6475 1.53067 71.1275 1.36 72.0875 1.36C73.5595 1.36 74.2955 1.86133 74.2955 2.864C74.2955 3.184 73.6342 4.69867 72.3115 7.408C71.6075 8.79467 71.0955 9.82933 70.7755 10.512C70.4768 11.1733 70.3168 11.5253 70.2955 11.568C69.1648 14.064 68.5995 16.048 68.5995 17.52C68.5995 18.3947 68.8128 18.832 69.2395 18.832L70.1995 18.48L70.2955 18.512C70.2955 18.6613 70.1355 18.8107 69.8155 18.96C69.5168 19.1093 69.2822 19.184 69.1115 19.184ZM82.9438 18.992C82.4958 18.992 82.2718 18.3733 82.2718 17.136C82.2718 15.2373 83.0291 12.9867 84.5438 10.384C84.2024 9.78667 84.0318 9.392 84.0318 9.2C84.0318 8.79467 84.3091 8.592 84.8638 8.592C85.1198 8.592 85.2904 8.72 85.3758 8.976C87.1678 6.288 88.9918 4.496 90.8478 3.6C90.8904 3.6 90.9224 3.6 90.9438 3.6C90.9864 3.57867 91.0184 3.568 91.0398 3.568C91.1678 3.568 91.3278 3.62133 91.5198 3.728C91.7118 3.83467 91.8078 3.94133 91.8078 4.048C91.8078 4.13333 91.7758 4.176 91.7118 4.176L90.2398 5.648C89.6211 6.26667 88.9704 6.97067 88.2878 7.76C87.6051 8.54933 86.8904 9.41333 86.1438 10.352C86.4638 10.928 86.7304 11.2907 86.9438 11.44C87.1784 11.568 87.6051 11.632 88.2238 11.632C89.6531 11.632 91.2104 11.3227 92.8958 10.704C94.5811 10.0853 95.9784 9.31733 97.0878 8.4C98.2184 7.46133 98.7838 6.58667 98.7838 5.776C98.7838 4.944 98.1438 4.29333 96.8638 3.824C95.5838 3.33333 93.8984 3.088 91.8078 3.088C86.3251 3.088 81.8984 4.26133 78.5278 6.608C78.2291 6.77867 78.0158 6.864 77.8878 6.864C77.5464 6.864 77.3758 6.69333 77.3758 6.352C77.3758 5.60533 78.0904 4.93333 79.5198 4.336C80.9278 3.71733 82.6238 3.22667 84.6078 2.864C85.5891 2.69333 86.5491 2.56533 87.4878 2.48C88.4264 2.37333 89.3331 2.32 90.2078 2.32H90.6238C93.2691 2.32 95.4238 2.66133 97.0878 3.344C98.0264 3.728 98.6664 4.15467 99.0078 4.624C99.3704 5.072 99.5518 5.57333 99.5518 6.128C99.5518 6.96 99.2211 7.73867 98.5598 8.464C97.9198 9.18933 97.0664 9.84 95.9998 10.416C94.9544 10.9707 93.8131 11.408 92.5758 11.728C91.3384 12.0267 90.1438 12.176 88.9918 12.176C88.3518 12.176 87.7544 12.144 87.1998 12.08C89.7384 16.176 91.6371 18.224 92.8958 18.224C93.1304 18.224 93.3331 18.16 93.5037 18.032C93.6744 17.904 93.7811 17.7013 93.8238 17.424L94.0798 16.08C94.2931 16.2293 94.3998 16.4853 94.3998 16.848C94.3998 17.0613 94.3571 17.296 94.2718 17.552C94.1864 17.7867 94.0264 18.0213 93.7917 18.256C93.4078 18.6827 92.8851 18.896 92.2238 18.896C91.5624 18.896 90.5704 18.224 89.2478 16.88C87.9251 15.4933 86.6024 13.744 85.2798 11.632C83.5731 14.5547 82.7198 16.7093 82.7198 18.096C82.7198 18.4587 82.8478 18.7253 83.1038 18.896C83.1038 18.96 83.0504 18.992 82.9438 18.992ZM98.56 18.352C96.7467 18.352 95.84 17.5093 95.84 15.824C95.84 14.5227 96.48 12.944 97.76 11.088C99.0827 9.232 100.341 8.304 101.536 8.304C102.048 8.304 102.496 8.47467 102.88 8.816C103.285 9.136 103.488 9.53067 103.488 10C103.488 10.7893 102.987 11.5893 101.984 12.4C101.003 13.1893 100.032 13.584 99.072 13.584C98.88 13.584 98.784 13.5413 98.784 13.456L98.88 13.296C101.333 12.528 102.56 11.2693 102.56 9.52C102.56 9.264 102.475 9.136 102.304 9.136C102.069 9.136 101.643 9.38133 101.024 9.872C100.491 10.2987 99.9893 10.7893 99.52 11.344C99.072 11.8987 98.6667 12.4747 98.304 13.072C97.536 14.3733 97.152 15.4613 97.152 16.336C97.152 17.1893 97.4827 17.616 98.144 17.616C98.912 17.616 99.7547 17.2213 100.672 16.432C100.971 16.1547 101.291 15.8453 101.632 15.504C101.973 15.1413 102.347 14.7467 102.752 14.32C103.541 13.4667 103.957 13.04 104 13.04C104.128 13.04 104.192 13.0933 104.192 13.2C104.192 13.2853 104.171 13.3707 104.128 13.456C101.888 16.72 100.032 18.352 98.56 18.352ZM105.202 18.736C104.669 18.736 104.199 18.64 103.794 18.448C103.41 18.256 103.218 18.0747 103.218 17.904C105.671 17.392 106.898 16.7733 106.898 16.048C106.898 15.8987 106.61 15.568 106.034 15.056C104.925 14.0747 104.37 12.976 104.37 11.76C104.37 10.8853 104.914 10.0213 106.002 9.168C107.133 8.272 108.157 7.824 109.074 7.824C109.223 7.824 109.522 8.048 109.97 8.496C110.418 8.944 110.642 9.232 110.642 9.36C110.642 9.46667 110.589 9.52 110.482 9.52C110.247 9.47733 110.055 9.44533 109.906 9.424C109.757 9.38133 109.65 9.36 109.586 9.36C108.626 9.36 107.634 9.712 106.61 10.416C105.607 11.12 105.106 11.8347 105.106 12.56C105.106 12.688 105.607 13.3387 106.61 14.512C107.613 15.6427 108.114 16.4213 108.114 16.848C108.114 17.2747 107.815 17.6907 107.218 18.096C106.898 18.3093 106.557 18.4693 106.194 18.576C105.853 18.6827 105.522 18.736 105.202 18.736ZM112.406 18C110.678 18 109.814 17.0933 109.814 15.28C109.814 14.5547 109.974 13.7867 110.294 12.976C110.635 12.144 111.051 11.472 111.542 10.96C111.307 10.5547 111.19 10.0533 111.19 9.456C111.19 8.83733 111.446 8.28267 111.958 7.792C112.47 7.28 113.099 7.024 113.846 7.024C115.233 7.024 116.171 7.74933 116.662 9.2C117.665 9.392 118.166 9.62667 118.166 9.904C118.166 10.224 118.059 10.384 117.846 10.384L117.046 10.256C117.067 10.4693 117.078 10.6613 117.078 10.832C117.099 11.0027 117.11 11.152 117.11 11.28C117.11 13.0293 116.662 14.5973 115.766 15.984C114.87 17.328 113.75 18 112.406 18ZM111.99 10.672C113.441 9.584 114.443 9.04 114.998 9.04H115.094C114.795 8.29333 114.241 7.92 113.43 7.92C113.067 7.92 112.769 8.048 112.534 8.304C112.299 8.53867 112.129 8.82667 112.022 9.168C111.915 9.50933 111.862 9.81867 111.862 10.096C111.862 10.352 111.905 10.544 111.99 10.672ZM112.374 17.616C113.249 17.616 114.07 16.9333 114.838 15.568C115.606 14.1813 115.99 12.8587 115.99 11.6C115.99 11.0453 115.894 10.5973 115.702 10.256C114.913 10.384 114.049 10.8853 113.11 11.76C113.323 11.9093 113.494 11.984 113.622 11.984C113.75 11.9627 113.825 11.952 113.846 11.952C113.953 11.952 114.006 12.0053 114.006 12.112C114.006 12.2827 113.867 12.368 113.59 12.368C113.355 12.368 113.089 12.2933 112.79 12.144C111.659 13.4667 111.094 14.7147 111.094 15.888C111.094 17.04 111.521 17.616 112.374 17.616ZM118.819 18.064C118.627 18.064 118.413 18.0107 118.179 17.904C117.944 17.7973 117.827 17.6693 117.827 17.52C117.827 17.1573 118.179 15.8773 118.883 13.68C119.587 11.4613 119.939 9.79733 119.939 8.688C119.939 8.34667 119.789 8.15467 119.491 8.112C119.192 8.06933 119.043 8.00533 119.043 7.92C119.043 7.728 119.203 7.632 119.523 7.632C120.952 7.632 121.667 8.21867 121.667 9.392C121.667 9.73333 121.315 10.992 120.611 13.168C121.763 11.2907 123.043 10 124.451 9.296C124.813 8.528 125.315 8.144 125.955 8.144C126.573 8.144 126.915 8.19733 126.979 8.304C126.957 8.28267 126.915 8.31467 126.851 8.4C126.787 8.48533 126.712 8.58133 126.627 8.688C126.285 9.17867 125.987 9.65867 125.731 10.128C125.475 10.576 125.336 10.928 125.315 11.184C125.315 11.76 125.517 12.112 125.923 12.24C125.965 12.2613 126.008 12.272 126.051 12.272C126.115 12.272 126.147 12.2933 126.147 12.336C126.147 12.5067 125.933 12.592 125.507 12.592C125.101 12.592 124.749 12.432 124.451 12.112C124.28 11.92 124.163 11.7173 124.099 11.504C124.035 11.2693 124.003 11.0453 124.003 10.832C124.003 10.4907 124.056 10.1813 124.163 9.904C123.629 10.3093 123.149 10.736 122.723 11.184C122.296 11.6107 121.901 12.0373 121.539 12.464C120.856 13.3387 120.376 14.1173 120.099 14.8C119.843 15.4613 119.661 16.0267 119.555 16.496C119.427 17.008 119.32 17.4027 119.235 17.68C119.149 17.936 119.011 18.064 118.819 18.064ZM127.287 18.608C126.348 18.608 125.879 18.1067 125.879 17.104C125.879 16.208 126.177 15.0347 126.775 13.584C127.009 13.0293 127.244 12.4747 127.479 11.92C127.713 11.3653 127.98 10.736 128.279 10.032C127.553 9.75467 127.191 9.33867 127.191 8.784C127.191 8.61333 127.233 8.496 127.319 8.432C127.639 8.58133 128.129 8.688 128.791 8.752C129.495 7.17333 129.847 6.17067 129.847 5.744C129.847 5.27467 129.761 5.04 129.591 5.04L128.951 5.2C128.887 5.2 128.855 5.168 128.855 5.104C128.855 4.93333 128.983 4.80533 129.239 4.72C129.495 4.61333 129.687 4.56 129.815 4.56C130.753 4.56 131.223 5.09333 131.223 6.16C131.223 6.77867 131.031 7.58933 130.647 8.592C130.732 8.67733 131.116 8.72 131.799 8.72C132.503 8.72 133.036 8.64533 133.399 8.496C133.74 8.32533 133.985 8.24 134.135 8.24C134.199 8.24 134.231 8.26133 134.231 8.304C134.231 8.368 134.177 8.45333 134.071 8.56C133.623 8.944 133.089 9.27467 132.471 9.552C131.873 9.82933 131.18 10.0213 130.391 10.128H130.295C130.273 10.128 130.241 10.1387 130.199 10.16C130.156 10.16 130.071 10.1813 129.943 10.224C128.001 14.0853 127.031 16.5387 127.031 17.584C127.031 17.9253 127.159 18.096 127.415 18.096L128.311 17.904L128.343 17.936C128.343 18.384 127.991 18.608 127.287 18.608Z" fill="white"/>
</svg>
